<?xml version="1.0" encoding="UTF-8" standalone="no"?>
<!-- Created with Inkscape (http://www.inkscape.org/) -->

<svg
   width="170mm"
   height="170mm"
   viewBox="0 0 170 170"
   version="1.1"
   id="svg5"
   inkscape:version="1.2 (dc2aedaf03, 2022-05-15)"
   sodipodi:docname="oxterm.svg"
   xml:space="preserve"
   xmlns:inkscape="http://www.inkscape.org/namespaces/inkscape"
   xmlns:sodipodi="http://sodipodi.sourceforge.net/DTD/sodipodi-0.dtd"
   xmlns:xlink="http://www.w3.org/1999/xlink"
   xmlns="http://www.w3.org/2000/svg"
   xmlns:svg="http://www.w3.org/2000/svg"><sodipodi:namedview
     id="namedview7"
     pagecolor="#ffffff"
     bordercolor="#666666"
     borderopacity="1.0"
     inkscape:pageshadow="2"
     inkscape:pageopacity="0.0"
     inkscape:pagecheckerboard="0"
     inkscape:document-units="mm"
     showgrid="false"
     inkscape:zoom="1.3384804"
     inkscape:cx="401.94836"
     inkscape:cy="336.94927"
     inkscape:window-width="1920"
     inkscape:window-height="1053"
     inkscape:window-x="0"
     inkscape:window-y="27"
     inkscape:window-maximized="1"
     inkscape:current-layer="layer1"
     fit-margin-top="0"
     fit-margin-left="0"
     fit-margin-right="0"
     fit-margin-bottom="0"
     inkscape:showpageshadow="2"
     inkscape:deskcolor="#d1d1d1" /><defs
     id="defs2"><linearGradient
       inkscape:collect="always"
       id="linearGradient6444-2"><stop
         style="stop-color:#28281e;stop-opacity:1;"
         offset="0"
         id="stop6440" /><stop
         style="stop-color:#28281e;stop-opacity:0.75"
         offset="0.75054973"
         id="stop7061" /><stop
         style="stop-color:#28281e;stop-opacity:0;"
         offset="1"
         id="stop6442" /></linearGradient><linearGradient
       inkscape:collect="always"
       id="linearGradient1035-3"><stop
         style="stop-color:#ffffff;stop-opacity:1;"
         offset="0"
         id="stop1031" /><stop
         style="stop-color:#ffffff;stop-opacity:0;"
         offset="1"
         id="stop1033" /></linearGradient><linearGradient
       inkscape:collect="always"
       id="linearGradient1896"><stop
         style="stop-color:#28281e;stop-opacity:1;"
         offset="0"
         id="stop1892" /><stop
         style="stop-color:#28281e;stop-opacity:0;"
         offset="1"
         id="stop1894" /></linearGradient><radialGradient
       inkscape:collect="always"
       xlink:href="#linearGradient1896"
       id="radialGradient1900"
       cx="109.54035"
       cy="118.7141"
       fx="109.54035"
       fy="118.7141"
       r="85"
       gradientUnits="userSpaceOnUse" /><radialGradient
       inkscape:collect="always"
       xlink:href="#linearGradient1035-3"
       id="radialGradient1037"
       cx="112.15626"
       cy="150.96761"
       fx="112.15626"
       fy="150.96761"
       r="68.586423"
       gradientTransform="matrix(1,0,0,0.24468823,-24.877439,29.085293)"
       gradientUnits="userSpaceOnUse" /><radialGradient
       inkscape:collect="always"
       xlink:href="#linearGradient6444-2"
       id="radialGradient6446"
       cx="110.28134"
       cy="-6.9979358"
       fx="110.28134"
       fy="-6.9979358"
       r="68.082649"
       gradientTransform="matrix(-1.4347296e-5,0.05843934,-1.0057554,-2.4691101e-4,103.24472,53.025543)"
       gradientUnits="userSpaceOnUse" /><filter
       style="color-interpolation-filters:sRGB;"
       inkscape:label="Drop Shadow"
       id="filter4597"
       x="-0.089479353"
       y="-0.17853101"
       width="1.2050568"
       height="1.4277305"><feFlood
         flood-opacity="0.498039"
         flood-color="rgb(0,0,0)"
         result="flood"
         id="feFlood4587" /><feComposite
         in="flood"
         in2="SourceGraphic"
         operator="in"
         result="composite1"
         id="feComposite4589" /><feGaussianBlur
         in="composite1"
         stdDeviation="2"
         result="blur"
         id="feGaussianBlur4591" /><feOffset
         dx="1.4"
         dy="1.9"
         result="offset"
         id="feOffset4593" /><feComposite
         in="SourceGraphic"
         in2="offset"
         operator="over"
         result="fbSourceGraphic"
         id="feComposite4595" /><feColorMatrix
         result="fbSourceGraphicAlpha"
         in="fbSourceGraphic"
         values="0 0 0 -1 0 0 0 0 -1 0 0 0 0 -1 0 0 0 0 1 0"
         id="feColorMatrix5033" /><feFlood
         id="feFlood5035"
         flood-opacity="0.498039"
         flood-color="rgb(0,0,0)"
         result="flood"
         in="fbSourceGraphic" /><feComposite
         in2="fbSourceGraphic"
         id="feComposite5037"
         in="flood"
         operator="out"
         result="composite1" /><feGaussianBlur
         id="feGaussianBlur5039"
         in="composite1"
         stdDeviation="2"
         result="blur" /><feOffset
         id="feOffset5041"
         dx="1.4"
         dy="1.9"
         result="offset" /><feComposite
         in2="fbSourceGraphic"
         id="feComposite5043"
         in="offset"
         operator="atop"
         result="composite2" /></filter><filter
       style="color-interpolation-filters:sRGB;"
       inkscape:label="Drop Shadow"
       id="filter5019"
       x="-0.32071487"
       y="-0.39667976"
       width="1.7349716"
       height="1.9503786"><feFlood
         flood-opacity="0.498039"
         flood-color="rgb(0,0,0)"
         result="flood"
         id="feFlood5009" /><feComposite
         in="flood"
         in2="SourceGraphic"
         operator="in"
         result="composite1"
         id="feComposite5011" /><feGaussianBlur
         in="composite1"
         stdDeviation="2"
         result="blur"
         id="feGaussianBlur5013" /><feOffset
         dx="1.4"
         dy="1.9"
         result="offset"
         id="feOffset5015" /><feComposite
         in="SourceGraphic"
         in2="offset"
         operator="over"
         result="fbSourceGraphic"
         id="feComposite5017" /><feColorMatrix
         result="fbSourceGraphicAlpha"
         in="fbSourceGraphic"
         values="0 0 0 -1 0 0 0 0 -1 0 0 0 0 -1 0 0 0 0 1 0"
         id="feColorMatrix5069" /><feFlood
         id="feFlood5071"
         flood-opacity="0.27451"
         flood-color="rgb(0,0,0)"
         result="flood"
         in="fbSourceGraphic" /><feComposite
         in2="fbSourceGraphic"
         id="feComposite5073"
         in="flood"
         operator="out"
         result="composite1" /><feGaussianBlur
         id="feGaussianBlur5075"
         in="composite1"
         stdDeviation="2"
         result="blur" /><feOffset
         id="feOffset5077"
         dx="1.4"
         dy="1.9"
         result="offset" /><feComposite
         in2="fbSourceGraphic"
         id="feComposite5079"
         in="offset"
         operator="atop"
         result="composite2" /></filter></defs><g
     inkscape:label="Layer 1"
     inkscape:groupmode="layer"
     id="layer1"
     transform="translate(-24.540352,-33.714104)"><circle
       style="fill:url(#radialGradient1900);fill-opacity:1;stroke:none;stroke-width:2.262;stroke-linecap:round;stroke-linejoin:round;stroke-miterlimit:4;stroke-dasharray:none;stroke-opacity:1"
       id="path1646"
       cx="109.54035"
       cy="118.7141"
       r="85"
       inkscape:label="Shadow" /><rect
       style="fill:#28281e;fill-opacity:1;stroke:none;stroke-width:3.062;stroke-linecap:round;stroke-linejoin:round;stroke-miterlimit:4;stroke-dasharray:none;stroke-opacity:1;opacity:0.9898793"
       id="rect47"
       width="155.0573"
       height="118.1723"
       x="32.949608"
       y="57.846756"
       ry="9.9875164"
       inkscape:label="Screen" /><rect
       style="fill:none;fill-opacity:1;stroke:#000000;stroke-width:0.562;stroke-linecap:round;stroke-linejoin:round;stroke-miterlimit:4;stroke-dasharray:none;stroke-opacity:1"
       id="rect47-3"
       width="156"
       height="120"
       x="32.450001"
       y="56.819"
       ry="9.9875164"
       inkscape:label="Frame" /><ellipse
       style="display:inline;opacity:0.101;fill:url(#radialGradient1037);fill-opacity:1;stroke:none;stroke-width:0.600001;stroke-linecap:round;stroke-linejoin:round"
       id="path214"
       cx="87.278824"
       cy="66.025368"
       rx="68.286423"
       ry="16.48229"
       inkscape:label="Highlight" /><path
       style="fill:none;stroke:#f0f0f0;stroke-width:7.5;stroke-linecap:round;stroke-linejoin:round;stroke-miterlimit:4;stroke-dasharray:none;stroke-opacity:0.5;fill-opacity:0.75"
       d="M 50,75 90,117.5 50,160"
       id="path1494"
       sodipodi:nodetypes="ccc"
       inkscape:label="Prompt" /><rect
       style="font-variation-settings:normal;opacity:1;vector-effect:none;fill:url(#radialGradient6446);fill-opacity:1;stroke:none;stroke-width:0.264583;stroke-linecap:butt;stroke-linejoin:miter;stroke-miterlimit:4;stroke-dasharray:none;stroke-dashoffset:0;stroke-opacity:1;-inkscape-stroke:none;stop-color:#000000;stop-opacity:1"
       id="rect6250"
       width="136.1653"
       height="4.2650456"
       x="42.590549"
       y="59.48885"
       ry="1.8439368"
       inkscape:label="Frame Shadow" /><path
       style="fill:#94947c;fill-opacity:1;stroke:none;stroke-width:0.264583px;stroke-linecap:butt;stroke-linejoin:miter;stroke-opacity:1;filter:url(#filter4597)"
       d="m 175.37539,106.86553 c 0,0 5.07581,4.82931 4.98838,12.43378 -0.0666,5.79707 -6.90895,11.21823 -12.66356,11.9218 -6.69008,0.81795 -13.82845,-4.33757 -17.62765,-9.90464 -1.62244,-2.37741 -0.69521,-5.71716 -1.19476,-8.55174 -0.44621,-2.53193 -0.37188,-5.2892 -1.60837,-7.54328 -1.73392,-3.16089 -4.34342,-6.293307 -7.70875,-7.586464 -8.26538,-3.176046 -18.31649,-2.126968 -26.53845,1.15986 -2.89703,1.158122 -5.61883,3.380684 -7.05571,6.150054 -1.07603,2.07391 -0.81877,4.63744 -0.72312,6.97191 0.1034,2.52336 1.33117,4.92214 1.39554,7.4468 0.0588,2.30795 0.25219,4.87903 -0.9272,6.86375 -3.09851,5.21429 -8.616864,10.43932 -14.673805,10.76039 -6.498173,0.34446 -13.647422,-4.16478 -16.874982,-9.81525 -2.494108,-4.36642 0.09098,-15.08533 0.09098,-15.08533 0,0 -0.274714,16.38555 13.483643,18.12606 8.037585,1.0168 11.110486,-7.37459 13.913054,-19.92879 1.11466,-4.99314 1.78626,-10.19641 3.95614,-14.829493 1.13446,-2.422272 2.51628,-4.915742 4.6317,-6.552629 4.09277,-3.166939 9.37691,-4.926768 14.52086,-5.492474 4.72533,-0.519668 9.77034,0.100654 14.1168,2.026017 3.13325,1.387941 5.86937,3.809455 7.91948,6.555481 3.43272,4.597971 4.64106,10.498888 6.75507,15.833298 3.71144,9.36528 6.15683,16.46724 13.43728,17.48991 3.61459,0.50774 8.14344,-2.91983 8.80544,-6.50938 1.1973,-6.4921 -0.41801,-11.93964 -0.41801,-11.93964 z"
       id="path1138"
       sodipodi:nodetypes="csaaaaaaaaaaaacssaaaaasasc"
       inkscape:label="horns" /><g
       id="g4964"
       inkscape:label="eyes"><ellipse
         style="fill:#420a02;fill-opacity:1;stroke:#909090;stroke-width:0.499999;stroke-opacity:1"
         id="path1288-3"
         cx="109.29986"
         cy="113.73283"
         rx="1.6633776"
         ry="1.434346"
         inkscape:label="left" /><ellipse
         style="opacity:1;fill:#420a02;fill-opacity:1;stroke:#909090;stroke-width:0.499999;stroke-opacity:1"
         id="path1288"
         cx="145.19893"
         cy="112.22974"
         rx="1.6633776"
         ry="1.434346"
         inkscape:label="right" /></g><g
       id="g4969"
       style="filter:url(#filter5019)"><path
         style="fill:#454534;stroke:none;stroke-width:0.264583px;stroke-linecap:butt;stroke-linejoin:miter;stroke-opacity:1;fill-opacity:1"
         d="m 123.89252,137.95526 c -3.1983,-0.61654 -7.76927,-1.4829 -9.70522,1.13651 -1.67245,2.26289 -3.72037,7.78833 -3.39214,11.99978 0.19483,2.49979 4.47853,2.58587 6.97538,2.81536 2.66249,0.24471 5.20108,-1.32241 7.86076,-1.596 3.06801,-0.3156 6.26328,0.71604 9.25249,-0.0435 2.12927,-0.54103 5.94004,-0.92611 5.80609,-3.11895 -0.34531,-5.65285 -2.44237,-7.93662 -5.23705,-11.01622 -2.01047,-2.21544 -6.15751,-1.29091 -8.97088,-0.2735 -0.44045,0.15928 -0.58684,0.87817 -1.05219,0.93122 -0.57933,0.066 -0.9647,-0.72433 -1.53724,-0.8347 z"
         id="path3964"
         sodipodi:nodetypes="assaaassaaa"
         inkscape:label="nose" /><path
         style="fill:#474735;stroke:none;stroke-width:0.264583px;stroke-linecap:butt;stroke-linejoin:miter;stroke-opacity:1;fill-opacity:1"
         d="m 118.39972,155.22539 c -1.00704,0.87828 1.39479,4.27909 3.67932,5.2441 1.52384,0.64368 3.30989,0.55971 4.95045,0.34761 2.79592,-0.36147 4.4501,-0.85003 6.1178,-2.24125 1.54614,-1.28981 4.15494,-4.80026 3.0612,-5.20736 -2.70131,-1.00547 -6.30828,0.0669 -9.4064,0.32706 -3.77938,0.31741 -6.8096,0.14071 -8.40237,1.52984 z"
         id="path3966"
         sodipodi:nodetypes="sssasss"
         inkscape:label="chin" /><path
         style="fill:#1e1e17;stroke:none;stroke-width:0.264583px;stroke-linecap:butt;stroke-linejoin:miter;stroke-opacity:1;fill-opacity:1"
         d="m 124.98964,146.10031 c -0.57857,0.0232 -0.82681,1.06284 -1.40443,1.02232 -2.38077,-0.16701 -2.93142,-4.08508 -5.14366,-4.98062 -0.44893,-0.18173 -1.09314,0.32419 -1.45296,0 -0.42148,-0.37974 0.38029,-1.58577 -0.17685,-1.69273 -0.95534,-0.1834 -1.37158,1.61127 -1.35651,2.58394 0.032,2.06304 1.3235,4.25229 3.04558,5.38876 1.76055,1.16186 4.18093,0.74768 6.28969,0.69649 2.43883,-0.0592 5.16989,0.15463 7.22652,-1.15749 1.59253,-1.01602 3.05157,-2.81162 3.17103,-4.69687 0.0876,-1.38301 -0.49344,-3.8457 -1.87272,-3.71166 -0.90972,0.0884 0.0251,2.1411 -0.74071,2.64009 -0.4843,0.31558 -1.1722,-0.44012 -1.71662,-0.24585 -2.11351,0.75416 -2.33226,4.64592 -4.55455,4.95753 -0.50844,0.0713 -0.80081,-0.82447 -1.31381,-0.80391 z"
         id="path3968"
         sodipodi:nodetypes="aaaaaaaaaaaaaaa"
         inkscape:label="nostrils" /></g></g></svg>
